<?xml version="1.0" encoding="UTF-8" standalone="no"?>
<!-- Created with Inkscape (http://www.inkscape.org/) -->

<svg
   width="210mm"
   height="297mm"
   viewBox="0 0 210 297"
   version="1.1"
   id="svg614"
   xml:space="preserve"
   inkscape:version="1.2.2 (732a01da63, 2022-12-09)"
   sodipodi:docname="raketka.svg"
   xmlns:inkscape="http://www.inkscape.org/namespaces/inkscape"
   xmlns:sodipodi="http://sodipodi.sourceforge.net/DTD/sodipodi-0.dtd"
   xmlns="http://www.w3.org/2000/svg"
   xmlns:svg="http://www.w3.org/2000/svg"><sodipodi:namedview
     id="namedview616"
     pagecolor="#ffffff"
     bordercolor="#000000"
     borderopacity="0.25"
     inkscape:showpageshadow="2"
     inkscape:pageopacity="0.0"
     inkscape:pagecheckerboard="0"
     inkscape:deskcolor="#d1d1d1"
     inkscape:document-units="mm"
     showgrid="false"
     inkscape:zoom="1"
     inkscape:cx="651.5"
     inkscape:cy="552.5"
     inkscape:window-width="1920"
     inkscape:window-height="991"
     inkscape:window-x="2391"
     inkscape:window-y="594"
     inkscape:window-maximized="1"
     inkscape:current-layer="layer1" /><defs
     id="defs611" /><g
     inkscape:label="Vrstva 1"
     inkscape:groupmode="layer"
     id="layer1"
     style="display:inline"><ellipse
       style="display:inline;fill:#0a0080;fill-opacity:1;stroke-width:0.268202"
       id="path1430"
       cx="110.45338"
       cy="96.241371"
       rx="10.030823"
       ry="10.094715" /><ellipse
       style="display:inline;fill:#007280;fill-opacity:1;stroke-width:0.566236"
       id="path2161"
       cx="110.255"
       cy="95.93399"
       rx="8.4458094"
       ry="8.8239794" /><ellipse
       style="display:inline;fill:#e3dbdb;fill-opacity:1;stroke-width:0.282241"
       id="path2267"
       cx="114.7121"
       cy="93.142815"
       rx="2.0169096"
       ry="2.0799379" /><path
       style="fill:#ff6600;fill-opacity:1;stroke-width:0.264583"
       d="m 76.548279,137.3629 -2.067556,0.31625 -1.92024,2.18807 -1.29421,2.3984 -1.38662,2.89931 -1.44966,3.40354 -1.283375,2.97282 -0.425419,1.39721 3.258626,-2.53094 2.633706,-2.13058 2.293797,-1.95388 2.798009,-2.72261 1.45077,-1.75129 0.237505,-2.11709 -0.90778,-2.21427 z"
       id="path2451"
       sodipodi:nodetypes="cccccccccccccccc" /><path
       style="fill:#ff0000;fill-opacity:1;stroke-width:0.378566"
       d="m 127.42187,93.027341 c -3.50434,-1.496298 -10.63437,-6.488887 -13.87442,-9.715142 l -1.32627,-1.320622 0.84365,-0.863335 c 1.16449,-1.191658 4.62187,-0.803041 3.2711,-0.131517 -1.6256,0.808159 -5.59135,0.03101 -7.05981,-1.425533 -1.26786,-1.257573 -0.0485,-1.099252 -0.55836,-1.82972 -0.74003,-1.060311 7.97335,-5.704606 13.27172,-7.818718 5.29837,-2.114112 17.64409,-3.092849 11.40714,-1.950354 -0.51952,0.09517 -0.57001,1.20274 -0.57251,3.513127 -0.002,2.379219 -0.72181,9.028397 -1.3162,12.167869 -1.5476,8.174166 -2.0128,9.854803 -2.71574,9.811208 -0.22278,-0.01382 -0.83942,-0.210586 -1.3703,-0.437263 z"
       id="path2647"
       sodipodi:nodetypes="sscsssssscsss" /><path
       style="fill:#ff0000;fill-opacity:1;stroke-width:0.0842227"
       d=""
       id="path2651"
       transform="scale(0.26458333)" /><path
       style="fill:#ff0000;fill-opacity:1;stroke-width:0.0842227"
       d=""
       id="path2653"
       transform="scale(0.26458333)" /><path
       style="fill:#ff0000;fill-opacity:1;stroke-width:0.168445"
       d=""
       id="path2665"
       transform="scale(0.26458333)" /><path
       style="fill:#ff0000;fill-opacity:1;stroke-width:0.168445"
       d=""
       id="path2673"
       transform="scale(0.26458333)" /><path
       style="fill:#cccccc;fill-opacity:1;stroke:none;stroke-width:0.276237;stroke-opacity:1"
       d="m 82.587994,122.22989 -0.100362,0.53133 -0.854094,2.09029 -1.153181,2.37289 1.605818,-1.38146 1.706187,-1.91279 3.111276,1.91279 2.70982,3.29424 0.301093,-0.53132 -1.314163,2.55275 2.3178,-1.91516 4.717097,3.18798 -2.709822,3.40051 -0.401453,4.88824 -0.301092,3.93185 -8.631284,-3.08171 -8.631285,-6.80103 -2.408731,-2.01906 2.314224,-6.11403 c 3.784921,-6.17719 1.844499,-7.95019 7.722152,-4.40631 z"
       id="path3808"
       sodipodi:nodetypes="cccccccccccccccccccc" /><path
       id="path2675"
       style="fill:#ff0000;fill-opacity:1;stroke-width:0.0501858"
       d="m 75.726047,124.83111 v 5.2e-4 5.1e-4 0.001 5.1e-4 5.2e-4 0.001 5.1e-4 5.2e-4 5.2e-4 5.1e-4 c -0.03723,10e-4 -0.08167,0.006 -0.137977,0.0134 -0.138092,0.0178 -0.486839,0.11092 -0.774113,0.20722 -5.281512,1.77079 -12.968714,5.96149 -16.757633,9.13691 -0.908776,0.76163 -2.177027,1.73624 -3.211173,2.46755 -1.248345,0.88265 -1.770206,1.29834 -2.44843,1.95285 -1.541937,1.488 -2.056508,2.70577 -1.25212,2.96313 0.03638,0.0117 0.119423,0.0275 0.218592,0.0444 h 5.16e-4 c 0.0097,7.4e-4 0.01925,0.002 0.02894,0.003 0.0237,0.001 0.04626,0.008 0.06873,0.0155 0.143524,0.0223 0.315861,0.0456 0.485241,0.0646 l 0.430982,0.0496 c 0.0039,3.3e-4 0.008,0 0.01188,0 h 0.0093 c 8.61e-4,1.1e-4 0.0017,0.001 0.0026,0.001 l 0.101286,0.0119 c 0.0013,-3e-5 0.0028,-6e-5 0.0041,0 0.01233,0 0.02446,0.002 0.03669,0.004 0.0111,8.2e-4 0.02204,0.002 0.03307,0.004 0.0024,3.6e-4 0.0048,0.001 0.0072,0.001 0.01769,0.003 0.03584,0.005 0.05374,0.006 0.02597,0.001 0.05166,0.003 0.07751,0.006 0.02781,0.002 0.05554,0.006 0.0832,0.0103 0.01224,0.002 0.02445,0.004 0.03669,0.006 h 0.0093 0.05478 0.05219 c 0.01718,5e-5 0.0345,-3.2e-4 0.05168,0 0.01974,0 0.03972,5.5e-4 0.05943,0.002 0.01549,0 0.03057,-3.3e-4 0.04599,0.002 0.01294,0.001 0.02582,0.004 0.03876,0.006 0.01688,0.002 0.03372,0.004 0.05064,0.006 0.01703,0.002 0.03404,0.003 0.05116,0.003 0.01803,4.7e-4 0.03623,9.8e-4 0.05426,0.001 0.02234,2.4e-4 0.04487,-1.4e-4 0.06718,-0.001 0.02462,-0.001 0.04933,-0.002 0.0739,-0.004 0.02702,-0.003 0.05407,-0.005 0.08113,-0.008 0.02404,-0.003 0.04771,-0.004 0.07183,-0.005 0.01717,-5.5e-4 0.0345,-4.1e-4 0.05168,-5.2e-4 0.01786,-0.001 0.03584,-0.001 0.05374,-0.002 l -0.208256,-5.1e-4 0.413928,-0.005 h 0.0052 c 0.01628,-5.5e-4 0.03273,-8.8e-4 0.04909,-0.002 10e-4,-5e-5 0.0021,-4.7e-4 0.0031,-5.2e-4 7.95e-4,-9e-5 0.0018,6e-5 0.0026,0 0.0014,-6e-5 0.0028,7e-5 0.0041,0 5.12e-4,-2e-5 0.001,2e-5 0.0015,0 1.81e-4,-1e-5 3.35e-4,2e-5 5.17e-4,0 0.0055,-4.5e-4 0.01095,-0.002 0.01654,-0.002 0.01451,-5.1e-4 0.02938,-7.9e-4 0.04392,-0.001 0.01278,-1.9e-4 0.02546,5e-5 0.03824,0 0.01392,-4e-5 0.02794,0 0.04186,0 0.01772,-1e-5 0.03499,0 0.05271,0 h 0.04909 c 0.0045,0 0.0084,6.8e-4 0.01189,0.002 h 0.0021 l 2.372982,-0.0253 c 3.203908,-0.0356 4.326,-0.0773 6.779431,-0.24753 3.228602,-0.22404 4.104685,-0.37635 4.704105,-0.81959 0.09421,-0.0697 0.847552,-0.69681 1.361674,-1.28209 0.52429,-0.59685 1.566234,-2.04754 2.102198,-2.75022 1.881193,-2.46694 2.05649,-2.82756 2.550231,-3.78788 0.347397,-0.67582 1.166085,-1.23599 1.667082,-3.70572 0.540877,-2.66589 0.448218,-3.99841 0.202055,-4.23695 -0.08818,-0.0855 -0.132859,-0.11317 -0.244429,-0.10904 z m -24.967469,15.68638 -10e-4,0.002 v 5.2e-4 l 5.16e-4,5.1e-4 z m 0.286804,1.0635 c 0.0024,10e-4 0.0048,0.003 0.0072,0.004 h 5.17e-4 c 0.0017,2.7e-4 0.0034,0.001 0.0052,0.001 -0.0042,-0.002 -0.0088,-0.003 -0.01292,-0.005 z m 0.548804,0.13281 5.17e-4,5.2e-4 c 0.0015,0 0.0031,1e-5 0.0047,0 -0.0018,-2.3e-4 -0.0034,-2.9e-4 -0.0052,-5.2e-4 z m 3.214274,0.0961 c 5.29e-4,1.3e-4 6.08e-4,3.8e-4 0.0016,5.2e-4 3.62e-4,-1e-4 9.35e-4,-4.5e-4 10e-4,-5.2e-4 z m 0.384473,0.002 c 9.93e-4,1.3e-4 0.0016,3.2e-4 0.0026,5.1e-4 h 5.17e-4 c 7e-4,-1e-4 0.0014,-4.2e-4 0.0021,-5.1e-4 z m 1.188041,0.13591 -0.0041,5.1e-4 c 0.0012,-5e-5 0.0024,3e-5 0.0036,0 z"
       sodipodi:nodetypes="cccccccccccccscscccccccsccccccccccccccccccscccccccccccsccssccssssscccssscccccccccccscccsscccscccccccccccccc" /><path
       style="fill:#ff1600;fill-opacity:1;stroke-width:0.0630285"
       d="m 70.130699,148.15106 c 0.02604,-0.0607 0.267275,-0.67755 0.536062,-1.37087 1.412968,-3.6446 1.790207,-4.79809 3.408648,-6.74398 l 0.646549,-0.77736 0.600261,-0.10808 c 0.593891,-0.10693 1.604351,-0.0941 1.720297,0.0218 0.02611,0.0261 0.162435,0.33001 0.302942,0.67533 l 0.255463,0.62785 -0.04277,0.62101 -0.04277,0.62101 -0.583015,0.64034 c -1.179758,1.29575 -2.526771,2.5338 -4.56651,4.19714 -0.837324,0.68281 -2.181833,1.70607 -2.241682,1.70607 -0.02246,0 -0.01953,-0.0496 0.0065,-0.1103 z"
       id="path5174"
       sodipodi:nodetypes="csscssscccssscc" /><path
       id="path2504"
       style="fill:#aacfce;fill-opacity:1;stroke:none;stroke-width:0.089276"
       d="m 136.14725,62.516597 c -0.37694,-0.01226 -0.9507,0.06837 -2.10272,0.262 -4.54955,0.764766 -10.23549,2.322188 -15.06678,4.127397 -5.61442,2.09817 -9.59451,4.204313 -13.5754,7.184574 -2.68048,2.006728 -4.31961,3.647139 -6.9758,6.976318 -5.452131,6.834699 -13.281227,19.857944 -22.036897,36.656674 -2.629367,5.04534 -3.156829,5.96927 -3.667477,6.42855 -0.122967,0.1106 -0.8293,0.3786 -1.698087,0.64441 -5.092777,1.55816 -11.071744,4.40827 -15.047144,7.17424 -4.050681,2.81706 -7.991358,6.13246 -10.174056,8.55813 l -0.879016,0.97668 0.15968,0.27337 c 0.122895,0.21042 0.281712,0.31096 0.690914,0.43719 0.979201,0.30209 2.431438,0.4432 13.0545,1.26865 8.740436,0.67915 9.716203,0.79499 9.716203,1.15445 0,0.14554 -0.539339,1.32215 -2.445329,5.34025 -2.123507,4.47533 -3.616316,7.88314 -3.616316,8.25427 0,0.1971 0.265509,0.0582 1.292427,-0.67748 1.243358,-0.88937 3.592111,-2.76779 7.192843,-5.75055 1.406402,-1.16512 2.726379,-2.24114 2.932637,-2.39055 0.420377,-0.30452 0.74355,-0.34876 0.837158,-0.11524 0.144312,0.35954 1.520722,4.33687 3.471106,10.03091 3.412418,9.96316 3.94843,11.40517 4.314466,11.60395 0.130913,0.0711 0.311919,0.1308 0.402559,0.1328 0.390979,0.008 1.125796,-1.06737 2.85564,-4.18114 2.647852,-4.76489 4.754092,-10.46452 5.97948,-16.18299 0.510638,-2.38201 0.710665,-3.88866 1.02526,-7.70805 0.206184,-2.50314 0.305431,-3.10384 0.572575,-3.46594 0.226063,-0.30642 0.649401,-0.69269 3.485575,-3.18327 2.211851,-1.9423 6.254849,-5.61565 9.356539,-8.49922 2.43754,-2.26827 10.58605,-10.36859 14.23117,-14.14694 4.18072,-4.33629 5.41668,-5.73886 7.50755,-8.52558 1.00114,-1.33433 2.0255,-2.65901 2.27635,-2.94401 0.67774,-0.77001 1.96029,-3.032735 2.86442,-5.052919 2.61694,-5.847172 3.8699,-11.405754 4.46123,-19.78794 0.12728,-1.801798 0.1175,-8.364216 -0.002,-10.696504 -0.17896,-3.262294 -0.29843,-3.82961 -0.84542,-4.058667 -0.16648,-0.06956 -0.32161,-0.110464 -0.54777,-0.117823 z m -4.64262,5.618262 c 0.40391,0.02532 0.66244,0.152981 0.86455,0.409794 0.16414,0.208637 0.17518,0.371353 0.17518,2.557984 0,2.233421 -0.0152,2.445993 -0.35243,4.868436 -0.19393,1.392958 -0.49548,3.58781 -0.67024,4.876705 -0.17477,1.28902 -0.41785,2.873393 -0.54002,3.520716 -0.12218,0.647192 -0.41941,2.28015 -0.66043,3.628202 -0.39819,2.227114 -0.48268,2.565364 -0.92449,3.695898 -0.26741,0.68444 -0.52077,1.253423 -0.56327,1.264523 -0.0425,0.01108 -0.35808,-0.117274 -0.70125,-0.285254 -0.34318,-0.168 -1.1354,-0.522973 -1.76062,-0.788583 -0.70797,-0.301142 -1.69855,-0.833498 -2.62981,-1.4149 -0.821,-0.51268 -1.72656,-1.063685 -2.01228,-1.224215 -0.28571,-0.16053 -0.94752,-0.680306 -1.47071,-1.154968 -0.52319,-0.47479 -1.53295,-1.311983 -2.24379,-1.859835 -1.41639,-1.091732 -4.76199,-4.217705 -4.86069,-4.541325 -0.0683,-0.223887 0.0896,-0.493918 0.81649,-1.39268 0.23394,-0.289117 0.38368,-0.510019 0.33228,-0.490409 -0.0514,0.01961 -0.55624,0.275141 -1.12138,0.567924 l -1.02733,0.532784 -0.39687,-0.325562 c -0.77068,-0.63139 -2.24416,-2.023463 -2.35696,-2.226737 -0.0628,-0.113258 -0.11531,-0.331186 -0.11731,-0.483691 -0.003,-0.255693 0.0721,-0.32691 0.95498,-0.902271 0.52701,-0.343533 1.39912,-0.854669 1.93839,-1.136365 0.53805,-0.281566 1.74154,-0.9146 2.67167,-1.406115 0.93014,-0.491646 2.27421,-1.125182 2.98638,-1.407666 0.71219,-0.282612 1.51568,-0.613339 1.78542,-0.734323 0.26974,-0.120858 0.9714,-0.388823 1.55959,-0.595312 0.58819,-0.206489 1.7913,-0.689131 2.67374,-1.072803 2.25901,-0.982056 6.41973,-2.41171 7.19543,-2.4722 0.17025,-0.01328 0.32115,-0.01 0.45578,-0.0078 z m -21.46484,18.103805 c 0.65963,-0.01637 1.32169,0.01484 1.82522,0.09819 5.49683,0.909832 9.17634,6.074465 8.23464,11.560535 -0.349,2.033204 -1.21909,3.744076 -2.67013,5.249296 -1.28621,1.33424 -2.88436,2.27467 -4.64881,2.73523 -1.0888,0.2842 -3.15531,0.36806 -4.19819,0.17001 -4.42018,-0.83814 -7.64942,-4.36103 -8.13904,-8.875423 -0.537097,-4.95363 2.88224,-9.675082 7.78609,-10.749214 0.49338,-0.10806 1.15181,-0.172251 1.81022,-0.188619 z M 78.628276,121.44117 c 0.017,-9.3e-4 0.03649,0.001 0.05788,0.006 v 5.1e-4 c 0.299397,0.054 1.019269,0.51726 1.875338,1.21647 1.071302,0.87498 1.264522,1.09245 1.264522,1.4211 0,0.11909 -0.335154,0.8823 -0.744657,1.69602 -0.801596,1.59265 -1.097932,2.29608 -1.005624,2.38848 0.03205,0.032 0.71475,-0.60868 1.516704,-1.42368 0.910592,-0.9254 1.550083,-1.50486 1.702221,-1.54306 0.355959,-0.0893 0.628125,0.0708 2.275314,1.33894 1.766229,1.35982 3.045995,2.46505 3.210656,2.77295 0.105862,0.19781 0.09505,0.31082 -0.08733,0.91313 -0.338486,1.11821 -0.452169,1.57066 -0.418579,1.66656 0.01741,0.0497 0.378394,-0.25043 0.802018,-0.66714 0.423743,-0.41671 0.846905,-0.79216 0.939995,-0.83406 0.122129,-0.055 0.287108,-0.007 0.592728,0.17208 0.708564,0.41525 3.517615,2.56644 3.517615,2.6939 0,0.089 -0.613485,0.81636 -1.576131,1.86913 -1.227318,1.34219 -1.2071,1.28423 -1.289844,3.67523 -0.03817,1.10306 -0.133413,2.56721 -0.211873,3.25355 -0.131172,1.14753 -0.574314,3.51957 -0.898653,4.81314 -0.273294,1.08957 -1.224382,4.05243 -1.703256,5.30355 -1.693642,4.43 -4.960682,10.74645 -6.01772,11.63599 -0.278243,0.23414 -0.672306,0.29178 -0.738456,0.108 -0.02206,-0.0613 -0.158735,-0.67327 -0.303858,-1.35961 -0.145132,-0.68635 -0.744448,-3.4138 -1.331701,-6.06113 -0.933179,-4.20515 -1.378934,-6.29985 -1.559078,-7.32358 -0.0645,-0.36632 0.115384,-0.64221 2.744535,-4.21473 2.523771,-3.42932 2.577564,-3.509 2.50579,-3.73517 -0.09919,-0.31252 -1.218642,-1.28271 -3.671094,-3.18327 -1.316687,-1.02046 -2.988029,-2.31947 -3.713468,-2.88613 -1.448894,-1.13168 -2.358331,-1.78749 -2.476851,-1.78749 -0.04227,0 -0.144003,0.13006 -0.226343,0.28939 -0.08233,0.15933 -0.65726,0.8311 -1.277442,1.49293 -1.042937,1.11311 -2.475791,2.8307 -3.802868,4.56045 -0.29995,0.39089 -0.582596,0.74847 -0.628386,0.79427 -0.141737,0.14174 -6.30474,0.51787 -10.134265,0.61856 -3.260087,0.0857 -3.687353,0.0806 -4.070036,-0.0465 -0.235015,-0.0781 -0.681952,-0.16982 -0.992704,-0.20412 -0.472246,-0.0521 -0.569354,-0.0919 -0.590661,-0.24133 -0.02688,-0.1875 0.210565,-0.55287 0.713651,-1.09967 0.165024,-0.17932 0.591826,-0.73534 0.948263,-1.23559 0.609008,-0.85362 0.718859,-0.95859 1.823661,-1.73064 0.646438,-0.45177 1.450594,-1.06565 1.786971,-1.36374 1.066045,-0.94484 3.243682,-2.57861 5.330941,-4.00079 2.624571,-1.78833 4.698865,-2.90058 8.720398,-4.67775 1.174394,-0.51902 3.503724,-1.33485 3.981669,-1.39475 0.406781,-0.051 0.89091,-0.30144 1.128613,-0.58394 0.113215,-0.13455 0.583546,-0.8765 1.044897,-1.649 0.461467,-0.77249 0.885479,-1.42245 0.942579,-1.44435 0.0124,-0.005 0.02692,-0.008 0.04393,-0.009 z m -2.021066,15.98352 c 0.272021,-0.0126 0.522046,0.008 0.919324,0.0527 l 0.887284,0.10077 0.426848,1.05781 0.426847,1.05782 -0.04961,1.07332 -0.04909,1.07332 -0.426847,0.50953 c -0.756678,0.90389 -3.787599,3.87955 -5.071525,4.97695 -2.019555,1.72805 -3.642068,3.04695 -5.284949,4.29793 -0.847526,0.64535 -1.560166,1.17358 -1.583366,1.17358 -0.02319,0 0.02443,-0.1505 0.105937,-0.33435 0.08151,-0.18384 0.479228,-1.19648 0.883667,-2.25051 0.880543,-2.29516 1.911247,-4.70624 2.829284,-6.61872 0.692885,-1.44325 1.531584,-2.75566 3.038575,-4.75526 l 0.81287,-1.07797 1.083655,-0.19276 c 0.485108,-0.0862 0.779193,-0.13154 1.051098,-0.14417 z" /><path
       style="display:inline;fill:#ff2a2a;fill-opacity:1;stroke:none;stroke-width:0.264999;stroke-opacity:1"
       d="m 87.831854,137.74707 -3.467651,2.04287 -3.974881,5.86822 -2.261647,3.31143 1.212898,4.81347 1.211865,6.50971 c 0,0 0.264888,3.702 1.668249,3.92079 1.545876,0.24101 3.065207,-3.55456 3.065207,-3.55456 l 3.216305,-6.72089 1.806297,-5.92523 1.684216,-6.34058 v -2.87308 l -0.230629,-3.00596"
       id="path3864"
       sodipodi:nodetypes="ccccccacccccc" /></g></svg>
